<svg width="269" height="254" viewBox="0 0 269 254" fill="none" xmlns="http://www.w3.org/2000/svg">
<path d="M184.938 18.1162C184.938 13.3115 186.709 8.70356 189.862 5.30611C193.015 1.90867 197.291 0 201.75 0H235.375C239.834 0 244.11 1.90867 247.263 5.30611C250.416 8.70356 252.187 13.3115 252.187 18.1162V235.511H260.594C262.823 235.511 264.961 236.465 266.538 238.164C268.114 239.863 269 242.167 269 244.569C269 246.971 268.114 249.275 266.538 250.974C264.961 252.673 262.823 253.627 260.594 253.627H8.40625C6.17677 253.627 4.03861 252.673 2.46213 250.974C0.885656 249.275 0 246.971 0 244.569C0 242.167 0.885656 239.863 2.46213 238.164C4.03861 236.465 6.17677 235.511 8.40625 235.511H16.8125V181.162C16.8125 176.357 18.5838 171.749 21.7368 168.352C24.8897 164.955 29.166 163.046 33.625 163.046H67.25C71.7089 163.046 75.9853 164.955 79.1382 168.352C82.2912 171.749 84.0625 176.357 84.0625 181.162V235.511H100.875V108.697C100.875 103.893 102.646 99.2846 105.799 95.8872C108.952 92.4897 113.229 90.5811 117.688 90.5811H151.312C155.771 90.5811 160.048 92.4897 163.201 95.8872C166.354 99.2846 168.125 103.893 168.125 108.697V235.511H184.938V18.1162ZM201.75 235.511H235.375V18.1162H201.75V235.511ZM151.312 235.511V108.697H117.688V235.511H151.312ZM67.25 235.511V181.162H33.625V235.511H67.25Z" fill="#05386B"/>
</svg>
