<svg width="20" height="19" viewBox="0 0 20 19" fill="none" xmlns="http://www.w3.org/2000/svg">
<path d="M15.13 9L16.39 7.74C16.83 7.3 17.39 7.06 18 7V6L12 0H2C0.89 0 0 0.89 0 2V16C0 16.5304 0.210714 17.0391 0.585786 17.4142C0.960859 17.7893 1.46957 18 2 18H8V16.13L8.13 16H2V2H9V9H15.13ZM11 1.5L16.5 7H11V1.5ZM16.13 10.83L18.17 12.87L12.04 19H10V16.96L16.13 10.83ZM19.85 11.19L18.87 12.17L16.83 10.13L17.81 9.15C18 8.95 18.33 8.95 18.53 9.15L19.85 10.47C20.05 10.67 20.05 11 19.85 11.19Z" fill="black"/>
</svg>
