<svg width="29" height="27" viewBox="0 0 29 27" fill="none" xmlns="http://www.w3.org/2000/svg">
<path d="M21.2831 17.2086C23.0381 15.01 23.8241 12.2842 23.484 9.5764C23.1438 6.86862 21.7026 4.3786 19.4485 2.60451C17.1945 0.830414 14.294 -0.0969223 11.3272 0.00802693C8.3604 0.112976 5.54617 1.24247 3.44754 3.17054C1.3489 5.09861 0.120614 7.68306 0.0084215 10.4068C-0.103771 13.1306 0.908401 15.7929 2.84244 17.8609C4.77648 19.929 7.48975 21.2504 10.4394 21.5607C13.3891 21.8711 16.3577 21.1475 18.7512 19.5348H18.7494C18.8037 19.6013 18.8617 19.6646 18.927 19.7261L25.9048 26.1322C26.2447 26.4445 26.7057 26.62 27.1865 26.6201C27.6673 26.6203 28.1284 26.4451 28.4685 26.1331C28.8086 25.8211 28.9997 25.3978 28.9999 24.9564C29.0001 24.515 28.8092 24.0917 28.4694 23.7794L21.4916 17.3733C21.4268 17.3131 21.3571 17.2575 21.2831 17.2069V17.2086ZM21.7507 10.8125C21.7507 12.0143 21.4929 13.2043 20.9919 14.3146C20.491 15.4249 19.7567 16.4338 18.8311 17.2836C17.9054 18.1334 16.8065 18.8075 15.5971 19.2674C14.3877 19.7273 13.0915 19.9641 11.7824 19.9641C10.4733 19.9641 9.17709 19.7273 7.96768 19.2674C6.75826 18.8075 5.65936 18.1334 4.73371 17.2836C3.80807 16.4338 3.0738 15.4249 2.57285 14.3146C2.07189 13.2043 1.81405 12.0143 1.81405 10.8125C1.81405 8.3853 2.86429 6.05755 4.73371 4.34129C6.60314 2.62503 9.13863 1.66085 11.7824 1.66085C14.4262 1.66085 16.9617 2.62503 18.8311 4.34129C20.7005 6.05755 21.7507 8.3853 21.7507 10.8125Z" fill="black" fill-opacity="0.89"/>
</svg>
