<svg width="15" height="16" viewBox="0 0 15 16" fill="none" xmlns="http://www.w3.org/2000/svg">
<path fill-rule="evenodd" clip-rule="evenodd" d="M14.7906 0.177658C14.7244 0.121343 14.6457 0.0766632 14.5591 0.0461777C14.4725 0.0156922 14.3797 0 14.2859 0C14.1921 0 14.0993 0.0156922 14.0127 0.0461777C13.9261 0.0766632 13.8474 0.121343 13.7812 0.177658L5.22731 7.43426C5.16093 7.49043 5.10827 7.55716 5.07233 7.63063C5.03639 7.70409 5.0179 7.78285 5.0179 7.86239C5.0179 7.94194 5.03639 8.02069 5.07233 8.09416C5.10827 8.16763 5.16093 8.23436 5.22731 8.29053L13.7812 15.5471C13.9151 15.6607 14.0966 15.7245 14.2859 15.7245C14.4752 15.7245 14.6567 15.6607 14.7906 15.5471C14.9244 15.4336 14.9996 15.2796 14.9996 15.119C14.9996 14.9584 14.9244 14.8044 14.7906 14.6909L6.73993 7.86239L14.7906 1.03394C14.857 0.977764 14.9096 0.911033 14.9456 0.837566C14.9815 0.764098 15 0.685339 15 0.605797C15 0.526256 14.9815 0.447497 14.9456 0.37403C14.9096 0.300562 14.857 0.233831 14.7906 0.177658Z" fill="black" fill-opacity="0.91"/>
<path fill-rule="evenodd" clip-rule="evenodd" d="M9.77275 0.177658C9.70654 0.121343 9.62787 0.0766632 9.54127 0.0461777C9.45467 0.0156922 9.36183 0 9.26807 0C9.17431 0 9.08147 0.0156922 8.99487 0.0461777C8.90827 0.0766632 8.8296 0.121343 8.76339 0.177658L0.209484 7.43426C0.143102 7.49043 0.0904347 7.55716 0.0544989 7.63063C0.0185631 7.70409 6.53594e-05 7.78285 6.53594e-05 7.86239C6.53594e-05 7.94194 0.0185631 8.02069 0.0544989 8.09416C0.0904347 8.16763 0.143102 8.23436 0.209484 8.29053L8.76339 15.5471C8.89724 15.6607 9.07878 15.7245 9.26807 15.7245C9.45736 15.7245 9.6389 15.6607 9.77275 15.5471C9.9066 15.4336 9.9818 15.2796 9.9818 15.119C9.9818 14.9584 9.9066 14.8044 9.77275 14.6909L1.7221 7.86239L9.77275 1.03394C9.83913 0.977764 9.8918 0.911033 9.92774 0.837566C9.96367 0.764098 9.98217 0.685339 9.98217 0.605797C9.98217 0.526256 9.96367 0.447497 9.92774 0.37403C9.8918 0.300562 9.83913 0.233831 9.77275 0.177658Z" fill="black" fill-opacity="0.91"/>
</svg>
