<svg width="33" height="25" viewBox="0 0 33 25" fill="none" xmlns="http://www.w3.org/2000/svg">
<path d="M21 15.625C16.995 15.625 9 17.7031 9 21.875V25H33V21.875C33 17.7031 25.005 15.625 21 15.625ZM7.5 9.375V4.6875H4.5V9.375H0V12.5H4.5V17.1875H7.5V12.5H12V9.375H7.5ZM21 12.5C22.5913 12.5 24.1174 11.8415 25.2426 10.6694C26.3679 9.49732 27 7.9076 27 6.25C27 4.5924 26.3679 3.00268 25.2426 1.83058C24.1174 0.65848 22.5913 0 21 0C19.4087 0 17.8826 0.65848 16.7574 1.83058C15.6321 3.00268 15 4.5924 15 6.25C15 7.9076 15.6321 9.49732 16.7574 10.6694C17.8826 11.8415 19.4087 12.5 21 12.5Z" fill="black"/>
</svg>
