<svg width="21" height="25" viewBox="0 0 21 25" fill="none" xmlns="http://www.w3.org/2000/svg">
<path d="M0 3.125C0 2.2962 0.26856 1.50134 0.746601 0.915291C1.22464 0.32924 1.873 0 2.54905 0L17.8434 0C18.5194 0 19.1678 0.32924 19.6458 0.915291C20.1239 1.50134 20.3924 2.2962 20.3924 3.125V21.875C20.3924 22.7038 20.1239 23.4987 19.6458 24.0847C19.1678 24.6708 18.5194 25 17.8434 25H2.54905C1.873 25 1.22464 24.6708 0.746601 24.0847C0.26856 23.4987 0 22.7038 0 21.875V3.125ZM5.09811 9.375C4.97527 9.37496 4.85504 9.41844 4.75189 9.50022C4.64874 9.582 4.56706 9.69858 4.5167 9.83594C4.46633 9.97329 4.44943 10.1256 4.46801 10.2744C4.48659 10.4233 4.53987 10.5624 4.62144 10.675L9.71954 17.7062C9.77933 17.7889 9.85273 17.855 9.9349 17.9003C10.0171 17.9456 10.1061 17.969 10.1962 17.969C10.2863 17.969 10.3754 17.9456 10.4575 17.9003C10.5397 17.855 10.6131 17.7889 10.6729 17.7062L15.771 10.675C15.8526 10.5624 15.9058 10.4233 15.9244 10.2744C15.943 10.1256 15.9261 9.97329 15.8757 9.83594C15.8254 9.69858 15.7437 9.582 15.6405 9.50022C15.5374 9.41844 15.4172 9.37496 15.2943 9.375H5.09811Z" fill="black" fill-opacity="0.66"/>
</svg>
