<svg width="71" height="30" viewBox="0 0 71 30" fill="none" xmlns="http://www.w3.org/2000/svg">
<path d="M25.6743 3.70945C25.8829 3.95082 26 4.27772 26 4.61853C26 4.95934 25.8829 5.28625 25.6743 5.52762L23.3461 8.21623L18.8817 3.06562L21.2099 0.377007C21.4192 0.13561 21.703 0 21.999 0C22.2949 0 22.5788 0.13561 22.7881 0.377007L25.6743 3.70688V3.70945ZM21.768 10.0344L17.3035 4.88379L2.09542 22.4319C1.97256 22.5736 1.88007 22.7465 1.82532 22.9367L0.0283844 29.1535C-0.00420419 29.2668 -0.00883127 29.3884 0.0150208 29.5045C0.0388729 29.6207 0.0902647 29.727 0.163451 29.8114C0.236637 29.8959 0.328735 29.9552 0.42945 29.9827C0.530165 30.0102 0.635529 30.0048 0.733765 29.9673L6.12234 27.8941C6.287 27.8317 6.43679 27.7259 6.55985 27.5851L21.768 10.037V10.0344Z" fill="black"/>
<path d="M51.658 8C51.9436 8 52.2175 8.10536 52.4195 8.29289C52.6214 8.48043 52.7349 8.73478 52.7349 9V21C52.7349 21.2652 52.6214 21.5196 52.4195 21.7071C52.2175 21.8946 51.9436 22 51.658 22C51.3724 22 51.0984 21.8946 50.8965 21.7071C50.6945 21.5196 50.5811 21.2652 50.5811 21V9C50.5811 8.73478 50.6945 8.48043 50.8965 8.29289C51.0984 8.10536 51.3724 8 51.658 8ZM57.0426 8C57.3282 8 57.6021 8.10536 57.8041 8.29289C58.0061 8.48043 58.1195 8.73478 58.1195 9V21C58.1195 21.2652 58.0061 21.5196 57.8041 21.7071C57.6021 21.8946 57.3282 22 57.0426 22C56.757 22 56.4831 21.8946 56.2811 21.7071C56.0791 21.5196 55.9657 21.2652 55.9657 21V9C55.9657 8.73478 56.0791 8.48043 56.2811 8.29289C56.4831 8.10536 56.757 8 57.0426 8ZM63.5041 9C63.5041 8.73478 63.3907 8.48043 63.1887 8.29289C62.9867 8.10536 62.7128 8 62.4272 8C62.1416 8 61.8677 8.10536 61.6657 8.29289C61.4637 8.48043 61.3503 8.73478 61.3503 9V21C61.3503 21.2652 61.4637 21.5196 61.6657 21.7071C61.8677 21.8946 62.1416 22 62.4272 22C62.7128 22 62.9867 21.8946 63.1887 21.7071C63.3907 21.5196 63.5041 21.2652 63.5041 21V9Z" fill="black"/>
<path fill-rule="evenodd" clip-rule="evenodd" d="M71 6C71 6.53043 70.7731 7.03914 70.3692 7.41421C69.9652 7.78929 69.4174 8 68.8462 8H67.7692V26C67.7692 27.0609 67.3154 28.0783 66.5075 28.8284C65.6997 29.5786 64.604 30 63.4615 30H50.5385C49.396 30 48.3003 29.5786 47.4925 28.8284C46.6846 28.0783 46.2308 27.0609 46.2308 26V8H45.1538C44.5826 8 44.0348 7.78929 43.6308 7.41421C43.2269 7.03914 43 6.53043 43 6V4C43 3.46957 43.2269 2.96086 43.6308 2.58579C44.0348 2.21071 44.5826 2 45.1538 2H52.6923C52.6923 1.46957 52.9192 0.960859 53.3232 0.585786C53.7271 0.210714 54.2749 0 54.8462 0L59.1538 0C59.7251 0 60.2729 0.210714 60.6768 0.585786C61.0808 0.960859 61.3077 1.46957 61.3077 2H68.8462C69.4174 2 69.9652 2.21071 70.3692 2.58579C70.7731 2.96086 71 3.46957 71 4V6ZM48.6388 8L48.3846 8.118V26C48.3846 26.5304 48.6115 27.0391 49.0155 27.4142C49.4194 27.7893 49.9672 28 50.5385 28H63.4615C64.0328 28 64.5806 27.7893 64.9845 27.4142C65.3885 27.0391 65.6154 26.5304 65.6154 26V8.118L65.3612 8H48.6388ZM45.1538 6V4H68.8462V6H45.1538Z" fill="black"/>
</svg>
