<svg width="28" height="31" viewBox="0 0 28 31" fill="none" xmlns="http://www.w3.org/2000/svg">
<path d="M14 0C6.265 0 0 3.08278 0 6.88889C0 10.695 6.265 13.7778 14 13.7778C21.735 13.7778 28 10.695 28 6.88889C28 3.08278 21.735 0 14 0ZM0 10.3333V15.5C0 19.3061 6.265 22.3889 14 22.3889C21.735 22.3889 28 19.3061 28 15.5V10.3333C28 14.1394 21.735 17.2222 14 17.2222C6.265 17.2222 0 14.1394 0 10.3333ZM0 18.9444V24.1111C0 27.9172 6.265 31 14 31C21.735 31 28 27.9172 28 24.1111V18.9444C28 22.7506 21.735 25.8333 14 25.8333C6.265 25.8333 0 22.7506 0 18.9444Z" fill="black"/>
</svg>
