<svg width="33" height="32" viewBox="0 0 33 32" fill="none" xmlns="http://www.w3.org/2000/svg">
<path d="M16.4998 9.6C18.299 9.6 20.0244 10.2743 21.2966 11.4745C22.5688 12.6747 23.2835 14.3026 23.2835 16C23.2835 17.6974 22.5688 19.3253 21.2966 20.5255C20.0244 21.7257 18.299 22.4 16.4998 22.4C14.7007 22.4 12.9752 21.7257 11.7031 20.5255C10.4309 19.3253 9.71616 17.6974 9.71616 16C9.71616 14.3026 10.4309 12.6747 11.7031 11.4745C12.9752 10.2743 14.7007 9.6 16.4998 9.6ZM16.4998 12.8C15.6003 12.8 14.7375 13.1371 14.1014 13.7373C13.4654 14.3374 13.108 15.1513 13.108 16C13.108 16.8487 13.4654 17.6626 14.1014 18.2627C14.7375 18.8629 15.6003 19.2 16.4998 19.2C17.3994 19.2 18.2621 18.8629 18.8982 18.2627C19.5343 17.6626 19.8917 16.8487 19.8917 16C19.8917 15.1513 19.5343 14.3374 18.8982 13.7373C18.2621 13.1371 17.3994 12.8 16.4998 12.8ZM13.108 32C12.684 32 12.3279 31.712 12.26 31.328L11.6325 27.088C10.5641 26.688 9.64832 26.144 8.76645 25.504L4.54361 27.12C4.1705 27.248 3.71261 27.12 3.5091 26.768L0.117257 21.232C0.0134591 21.0671 -0.0231334 20.8723 0.0143224 20.6838C0.0517781 20.4953 0.160717 20.3262 0.320767 20.208L3.89916 17.552L3.78044 16L3.89916 14.4L0.320767 11.792C0.160717 11.6738 0.0517781 11.5047 0.0143224 11.3162C-0.0231334 11.1277 0.0134591 10.9329 0.117257 10.768L3.5091 5.232C3.71261 4.88 4.1705 4.736 4.54361 4.88L8.76645 6.48C9.64832 5.856 10.5641 5.312 11.6325 4.912L12.26 0.672C12.3279 0.288 12.684 0 13.108 0H19.8917C20.3157 0 20.6718 0.288 20.7396 0.672L21.3671 4.912C22.4356 5.312 23.3513 5.856 24.2332 6.48L28.4561 4.88C28.8292 4.736 29.2871 4.88 29.4906 5.232L32.8824 10.768C33.1029 11.12 33.0011 11.552 32.6789 11.792L29.1005 14.4L29.2192 16L29.1005 17.6L32.6789 20.208C33.0011 20.448 33.1029 20.88 32.8824 21.232L29.4906 26.768C29.2871 27.12 28.8292 27.264 28.4561 27.12L24.2332 25.52C23.3513 26.144 22.4356 26.688 21.3671 27.088L20.7396 31.328C20.6718 31.712 20.3157 32 19.8917 32H13.108ZM15.2279 3.2L14.6004 7.376C12.5653 7.776 10.7676 8.8 9.46177 10.224L5.37461 8.56L4.10267 10.64L7.68106 13.12C7.00269 14.9867 7.00269 17.0133 7.68106 18.88L4.08571 21.376L5.35765 23.456L9.47873 21.792C10.7846 23.2 12.5653 24.224 14.5834 24.608L15.2109 28.8H17.7887L18.4162 24.624C20.4344 24.224 22.2151 23.2 23.5209 21.792L27.642 23.456L28.914 21.376L25.3186 18.896C25.997 17.024 25.997 14.992 25.3186 13.12L28.897 10.64L27.6251 8.56L23.5379 10.224C22.2053 8.76852 20.3976 7.77228 18.3993 7.392L17.7718 3.2H15.2279Z" fill="black"/>
</svg>
