<svg width="162" height="184" viewBox="0 0 162 184" fill="none" xmlns="http://www.w3.org/2000/svg">
<path d="M80.5 43C87.3293 43 93.8789 45.5812 98.708 50.1759C103.537 54.7705 106.25 61.0022 106.25 67.5C106.25 73.9978 103.537 80.2295 98.708 84.8241C93.8789 89.4188 87.3293 92 80.5 92C73.6707 92 67.1211 89.4188 62.292 84.8241C57.4629 80.2295 54.75 73.9978 54.75 67.5C54.75 61.0022 57.4629 54.7705 62.292 50.1759C67.1211 45.5812 73.6707 43 80.5 43ZM80.5 104.25C108.954 104.25 132 115.214 132 128.75V141H29V128.75C29 115.214 52.0462 104.25 80.5 104.25Z" fill="black"/>
<path d="M0 25C0 11.1929 11.1929 0 25 0H137C150.807 0 162 11.1929 162 25V159C162 172.807 150.807 184 137 184H25C11.1929 184 0 172.807 0 159V25Z" fill="black" fill-opacity="0.12"/>
</svg>
