<svg width="36" height="33" viewBox="0 0 36 33" fill="none" xmlns="http://www.w3.org/2000/svg">
<path d="M26.475 8.73125C25.3648 7.70667 24.0444 6.89365 22.5899 6.33907C21.1353 5.78449 19.5754 5.49932 18 5.5C14.8174 5.5 11.7652 6.65893 9.51472 8.72183C7.26428 10.7847 6 13.5826 6 16.5C6 19.4174 7.26428 22.2153 9.51472 24.2782C11.7652 26.3411 14.8174 27.5 18 27.5C23.595 27.5 28.26 23.9938 29.595 19.25H26.475C25.8571 20.8581 24.71 22.2508 23.192 23.2359C21.674 24.221 19.8599 24.7501 18 24.75C15.6131 24.75 13.3239 23.8808 11.636 22.3336C9.94821 20.7865 9 18.688 9 16.5C9 14.312 9.94821 12.2135 11.636 10.6664C13.3239 9.1192 15.6131 8.25 18 8.25C20.49 8.25 22.71 9.19875 24.33 10.6975L19.5 15.125H30V5.5L26.475 8.73125Z" fill="black"/>
</svg>
