<svg width="27" height="25" viewBox="0 0 27 25" fill="none" xmlns="http://www.w3.org/2000/svg">
<path d="M26.6263 13.6059L17.6259 24.5416C16.8223 25.518 15.4293 24.8345 15.4293 23.435V17.186H8.14326C7.43073 17.186 6.85748 16.4895 6.85748 15.6238V9.37483C6.85748 8.50909 7.43073 7.81259 8.14326 7.81259H15.4293V1.56362C15.4293 0.170627 16.8169 -0.519362 17.6259 0.457038L26.6263 11.3927C27.1246 12.0046 27.1246 12.994 26.6263 13.6059ZM10.2862 24.2161V21.6124C10.2862 21.1828 9.99692 20.8313 9.64334 20.8313H5.14311C4.19485 20.8313 3.42874 19.9004 3.42874 18.7483V6.25035C3.42874 5.09819 4.19485 4.16736 5.14311 4.16736H9.64334C9.99692 4.16736 10.2862 3.81585 10.2862 3.38624V0.782505C10.2862 0.352889 9.99692 0.00138444 9.64334 0.00138444H5.14311C2.30369 0.00138444 0 2.8004 0 6.25035V18.7483C0 22.1982 2.30369 24.9972 5.14311 24.9972H9.64334C9.99692 24.9972 10.2862 24.6457 10.2862 24.2161Z" fill="black"/>
</svg>
