<svg width="28" height="18" viewBox="0 0 28 18" fill="none" xmlns="http://www.w3.org/2000/svg">
<path d="M22.1667 15.4286V18H8.16667V15.4286C8.16667 15.4286 8.16667 10.2857 15.1667 10.2857C22.1667 10.2857 22.1667 15.4286 22.1667 15.4286ZM18.6667 3.85714C18.6667 3.09427 18.4614 2.34853 18.0768 1.71423C17.6922 1.07993 17.1456 0.585547 16.5061 0.293609C15.8665 0.00167125 15.1628 -0.0747131 14.4839 0.0741156C13.8049 0.222944 13.1813 0.590301 12.6918 1.12973C12.2023 1.66916 11.869 2.35644 11.7339 3.10465C11.5989 3.85287 11.6682 4.62841 11.9331 5.33321C12.198 6.03801 12.6466 6.64041 13.2222 7.06424C13.7977 7.48807 14.4744 7.71429 15.1667 7.71429C16.0949 7.71429 16.9852 7.30791 17.6415 6.58456C18.2979 5.8612 18.6667 4.88012 18.6667 3.85714ZM22.4 10.3629C23.0377 11.0112 23.5519 11.7931 23.9124 12.6629C24.273 13.5326 24.4727 14.4728 24.5 15.4286V18H28V15.4286C28 15.4286 28 10.9929 22.4 10.3629ZM21 1.46718e-06C20.6475 0.000233941 20.2972 0.0609614 19.9617 0.180001C20.6442 1.25868 21.0102 2.54209 21.0102 3.85714C21.0102 5.17219 20.6442 6.45561 19.9617 7.53429C20.2972 7.65333 20.6475 7.71405 21 7.71429C21.9283 7.71429 22.8185 7.30791 23.4749 6.58456C24.1313 5.8612 24.5 4.88012 24.5 3.85714C24.5 2.83417 24.1313 1.85309 23.4749 1.12973C22.8185 0.406378 21.9283 1.46718e-06 21 1.46718e-06ZM9.33333 6.42857H5.83333V2.57143H3.5V6.42857H0V9H3.5V12.8571H5.83333V9H9.33333V6.42857Z" fill="black"/>
</svg>
