<svg width="30" height="20" viewBox="0 0 30 20" fill="none" xmlns="http://www.w3.org/2000/svg">
<path d="M6.66667 5H23.3333V15H6.66667V5ZM27.5 10C27.5 11.3807 28.6193 12.5 30 12.5V17.5C30 18.8807 28.8807 20 27.5 20H2.5C1.11927 20 0 18.8807 0 17.5V12.5C1.38073 12.5 2.5 11.3807 2.5 10C2.5 8.61927 1.38073 7.5 0 7.5V2.5C0 1.11927 1.11927 0 2.5 0H27.5C28.8807 0 30 1.11927 30 2.5V7.5C28.6193 7.5 27.5 8.61927 27.5 10ZM25 4.58333C25 3.89297 24.4404 3.33333 23.75 3.33333H6.25C5.55963 3.33333 5 3.89297 5 4.58333V15.4167C5 16.107 5.55963 16.6667 6.25 16.6667H23.75C24.4404 16.6667 25 16.107 25 15.4167V4.58333Z" fill="black"/>
</svg>
