<svg width="24" height="28" viewBox="0 0 24 28" fill="none" xmlns="http://www.w3.org/2000/svg">
<path d="M2 28C2 28 0 28 0 25.6667C0 23.3333 2 16.3333 12 16.3333C22 16.3333 24 23.3333 24 25.6667C24 28 22 28 22 28H2ZM12 14C13.5913 14 15.1174 13.2625 16.2426 11.9497C17.3679 10.637 18 8.85651 18 7C18 5.14348 17.3679 3.36301 16.2426 2.05025C15.1174 0.737498 13.5913 0 12 0C10.4087 0 8.88258 0.737498 7.75736 2.05025C6.63214 3.36301 6 5.14348 6 7C6 8.85651 6.63214 10.637 7.75736 11.9497C8.88258 13.2625 10.4087 14 12 14Z" fill="black"/>
</svg>
