<svg width="75" height="27" viewBox="0 0 75 27" fill="none" xmlns="http://www.w3.org/2000/svg">
<path d="M37.5 25.3125V1.6875H65.625C66.8682 1.6875 68.0605 1.86529 68.9396 2.18176C69.8186 2.49822 70.3125 2.92745 70.3125 3.375V23.625C70.3125 24.0726 69.8186 24.5018 68.9396 24.8182C68.0605 25.1347 66.8682 25.3125 65.625 25.3125H37.5ZM65.625 27C68.1114 27 70.496 26.6444 72.2541 26.0115C74.0123 25.3785 75 24.5201 75 23.625V3.375C75 2.47989 74.0123 1.62145 72.2541 0.988515C70.496 0.355579 68.1114 0 65.625 0L9.375 0C6.8886 0 4.50403 0.355579 2.74587 0.988515C0.987721 1.62145 0 2.47989 0 3.375L0 23.625C0 24.5201 0.987721 25.3785 2.74587 26.0115C4.50403 26.6444 6.8886 27 9.375 27H65.625Z" fill="black"/>
</svg>
