<svg width="116" height="26" viewBox="0 0 116 26" fill="none" xmlns="http://www.w3.org/2000/svg">
<path d="M31.6379 0.904438L29.126 7.62704L23.5057 8.70855C22.4978 8.9015 22.0939 10.5415 22.8248 11.4809L26.8909 16.7107L25.9292 24.0984C25.7561 25.4338 26.8217 26.4341 27.7142 25.8096L32.742 22.3213L37.7698 25.8096C38.6623 26.429 39.7278 25.4338 39.5547 24.0984L38.593 16.7107L42.6591 11.4809C43.39 10.5415 42.9861 8.9015 41.9783 8.70855L36.358 7.62704L33.846 0.904438C33.3959 -0.293851 32.0919 -0.309084 31.6379 0.904438Z" fill="#FFC632"/>
<path d="M55.9607 0.904438L53.4487 7.62704L47.8285 8.70855C46.8206 8.9015 46.4167 10.5415 47.1476 11.4809L51.2137 16.7107L50.252 24.0984C50.0789 25.4338 51.1444 26.4341 52.0369 25.8096L57.0647 22.3213L62.0926 25.8096C62.985 26.429 64.0506 25.4338 63.8775 24.0984L62.9158 16.7107L66.9819 11.4809C67.7128 10.5415 67.3089 8.9015 66.301 8.70855L60.6808 7.62704L58.1688 0.904438C57.7187 -0.293851 56.4146 -0.309084 55.9607 0.904438Z" fill="#FFC632"/>
<path d="M80.2834 0.904438L77.7715 7.62704L72.1512 8.70855C71.1433 8.9015 70.7394 10.5415 71.4703 11.4809L75.5364 16.7107L74.5747 24.0984C74.4016 25.4338 75.4672 26.4341 76.3597 25.8096L81.3875 22.3213L86.4153 25.8096C87.3078 26.429 88.3734 25.4338 88.2002 24.0984L87.2385 16.7107L91.3047 11.4809C92.0356 10.5415 91.6316 8.9015 90.6238 8.70855L85.0035 7.62704L82.4915 0.904438C82.0415 -0.293851 80.7374 -0.309084 80.2834 0.904438Z" fill="#FFC632"/>
<path d="M104.606 0.904438L102.094 7.62704L96.4735 8.70855C95.4656 8.9015 95.0617 10.5415 95.7926 11.4809L99.8587 16.7107L98.897 24.0984C98.7239 25.4338 99.7895 26.4341 100.682 25.8096L105.71 22.3213L110.738 25.8096C111.63 26.429 112.696 25.4338 112.523 24.0984L111.561 16.7107L115.627 11.4809C116.358 10.5415 115.954 8.9015 114.946 8.70855L109.326 7.62704L106.814 0.904438C106.364 -0.293851 105.06 -0.309084 104.606 0.904438Z" fill="#FFC632"/>
<path d="M9.18628 0.904438L6.67429 7.62704L1.05405 8.70855C0.0461803 8.9015 -0.357738 10.5415 0.373162 11.4809L4.43927 16.7107L3.47756 24.0984C3.30446 25.4338 4.37003 26.4341 5.2625 25.8096L10.2903 22.3213L15.3181 25.8096C16.2106 26.429 17.2762 25.4338 17.1031 24.0984L16.1414 16.7107L20.2075 11.4809C20.9384 10.5415 20.5345 8.9015 19.5266 8.70855L13.9064 7.62704L11.3944 0.904438C10.9443 -0.293851 9.64021 -0.309084 9.18628 0.904438Z" fill="#FFC632"/>
</svg>
