<svg width="22" height="25" viewBox="0 0 22 25" fill="none" xmlns="http://www.w3.org/2000/svg">
<path d="M20.6313 8.37451L14.6933 7.33398L12.0397 0.869629C11.8011 0.291992 11.3358 0 10.8705 0C10.408 0 9.94594 0.288086 9.70658 0.869629L7.05219 7.3335L1.11378 8.37305C0.0488627 8.55859 -0.377917 10.1353 0.3941 11.0386L4.68989 16.0679L3.67325 23.1714C3.52882 24.186 4.20185 25 4.95561 25C5.15562 25 5.3613 24.9429 5.55887 24.8169L10.8713 21.4634L16.1833 24.8179C16.3805 24.9424 16.5858 24.999 16.785 24.999C17.5395 24.999 18.2138 24.188 18.0694 23.1729L17.0539 16.0688L21.3505 11.0405C22.123 10.1372 21.6962 8.56006 20.6313 8.37451ZM15.6925 14.3901L14.9574 15.2505L15.131 16.4653L15.9229 22.0049L11.7796 19.3882L10.8717 18.8149L10.8729 3.32715L12.9431 8.37061L13.3967 9.47559L14.4113 9.65332L19.0454 10.4653L15.6925 14.3901Z" fill="#FFC632"/>
</svg>
