<svg width="30" height="26" viewBox="0 0 30 26" fill="none" xmlns="http://www.w3.org/2000/svg">
<path d="M22.0777 14.3119C21.9397 14.3119 21.8017 14.4312 21.6637 14.5505L21.3877 16.1009C20.9738 16.2202 20.5598 16.4587 20.2839 16.6972L18.628 16.1009C18.49 16.1009 18.3521 16.1009 18.2141 16.2202L16.8342 18.2477C16.6962 18.367 16.8342 18.4862 16.9722 18.6055L18.49 19.5596V20.7523L16.9722 21.7064C16.8342 21.8257 16.8342 21.945 16.8342 22.0642L18.2141 24.0917C18.3521 24.211 18.49 24.211 18.628 24.211L20.2839 23.6147C20.6978 23.8532 20.9738 24.0917 21.3877 24.211L21.6637 25.7615C21.6637 25.8807 21.8017 26 22.0777 26H24.8374C24.9754 26 25.1134 25.8807 25.1134 25.7615L25.3893 24.211C25.8033 24.0917 26.2172 23.8532 26.4932 23.6147L28.149 24.211C28.287 24.211 28.563 24.211 28.563 24.0917L29.9428 22.0642C30.0808 21.945 29.9428 21.8257 29.8049 21.7064L28.287 20.7523V19.5596L29.8049 18.6055C29.9428 18.4862 29.9428 18.367 29.9428 18.2477L28.563 16.2202C28.425 16.1009 28.287 16.1009 28.149 16.1009L26.6312 16.6972C26.2172 16.4587 25.9413 16.2202 25.3893 16.1009L25.1134 14.5505C25.1134 14.4312 24.9754 14.3119 24.8374 14.3119H22.0777ZM23.4575 18.4862C24.5614 18.4862 25.5273 19.3211 25.5273 20.2752C25.5273 21.2294 24.5614 22.0642 23.4575 22.0642C22.3536 22.0642 21.3877 21.2294 21.3877 20.2752C21.3877 19.3211 22.3536 18.4862 23.4575 18.4862ZM14.7644 23.8532H0L27.5971 0V12.7615C26.3552 12.2844 24.9754 11.9266 23.4575 11.9266C18.0761 11.9266 13.7985 15.6239 13.7985 20.2752C13.7985 21.5872 14.0745 22.7798 14.7644 23.8532Z" fill="black"/>
</svg>
