<svg width="29" height="34" viewBox="0 0 29 34" fill="none" xmlns="http://www.w3.org/2000/svg">
<path d="M27.5148 11.3893L19.5956 9.97422L16.0566 1.1827C15.7385 0.397109 15.1179 0 14.4974 0C13.8806 0 13.2643 0.391797 12.9451 1.1827L9.40511 9.97355L1.48539 11.3873C0.0651655 11.6397 -0.504007 13.7839 0.525589 15.0125L6.25465 21.8523L4.8988 31.5131C4.70619 32.893 5.60378 34 6.60903 34C6.87576 34 7.15007 33.9223 7.41355 33.751L14.4985 29.1902L21.5828 33.7523C21.8458 33.9216 22.1195 33.9987 22.3852 33.9987C23.3915 33.9987 24.2907 32.8957 24.0981 31.5151L22.7439 21.8536L28.474 15.0151C29.5042 13.7866 28.935 11.6417 27.5148 11.3893ZM20.9282 19.5706L19.9478 20.7407L20.1794 22.3929L21.2355 29.9266L15.7098 26.3679L14.499 25.5883L14.5006 4.52492L17.2615 11.384L17.8664 12.8868L19.2196 13.1285L25.3998 14.2329L20.9282 19.5706Z" fill="#EDF5E1"/>
</svg>
