<svg width="22" height="26" viewBox="0 0 22 26" fill="none" xmlns="http://www.w3.org/2000/svg">
<g style="mix-blend-mode:darken">
<path d="M9.70596 0.904438L7.05187 7.62704L1.11368 8.70855C0.0487929 8.9015 -0.377976 10.5415 0.394272 11.4809L4.69041 16.7107L3.6743 24.0984C3.4914 25.4338 4.61725 26.4341 5.56021 25.8096L10.8725 22.3213L16.1847 25.8096C17.1277 26.429 18.2535 25.4338 18.0706 24.0984L17.0545 16.7107L21.3507 11.4809C22.1229 10.5415 21.6961 8.9015 20.6312 8.70855L14.6931 7.62704L12.039 0.904438C11.5634 -0.293851 10.1856 -0.309084 9.70596 0.904438Z" fill="black" fill-opacity="0.24"/>
<path d="M7.14146 8.11895L7.41488 8.06916L7.51693 7.81065L10.171 1.08822C10.3474 0.641817 10.6456 0.499076 10.8719 0.500005C11.1006 0.500943 11.3995 0.648927 11.5741 1.08849C11.5741 1.08862 11.5742 1.08874 11.5742 1.08887L14.228 7.81065L14.3301 8.06916L14.6035 8.11895L20.5417 9.20046L20.5421 9.20054C20.8209 9.25106 21.0836 9.50798 21.1959 9.94052C21.3066 10.3665 21.2311 10.839 20.9644 11.1633L20.9643 11.1635L16.6682 16.3933L16.5294 16.5622L16.5592 16.7788L17.5753 24.1663C17.5753 24.1664 17.5753 24.1665 17.5753 24.1665C17.6458 24.6821 17.4599 25.0957 17.2157 25.3152C16.9831 25.5242 16.7141 25.5591 16.4592 25.3917L16.4592 25.3916L11.1469 21.9034L10.8725 21.7232L10.598 21.9034L5.28576 25.3916L5.28412 25.3927C5.02974 25.5612 4.76201 25.5266 4.52959 25.3174C4.28507 25.0972 4.09903 24.6821 4.16967 24.1663L5.18575 16.7788L5.21554 16.5622L5.07677 16.3933L0.780628 11.1635L0.780504 11.1633C0.513825 10.839 0.438326 10.3665 0.54899 9.94052C0.661351 9.50798 0.923999 9.25106 1.20283 9.20054L1.20327 9.20046L7.14146 8.11895Z" stroke="black" stroke-opacity="0.04"/>
</g>
</svg>
