<svg width="23" height="25" viewBox="0 0 23 25" fill="none" xmlns="http://www.w3.org/2000/svg">
<g style="mix-blend-mode:darken">
<path d="M10.1471 0.869652L7.37241 7.3337L1.1643 8.37361C0.0510108 8.55913 -0.395157 10.1361 0.412194 11.0393L4.90361 16.068L3.84131 23.1716C3.65009 24.4556 4.82713 25.4174 5.81294 24.8169L11.3667 21.4628L16.9204 24.8169C17.9062 25.4125 19.0832 24.4556 18.892 23.1716L17.8297 16.068L22.3211 11.0393C23.1285 10.1361 22.6823 8.55913 21.569 8.37361L15.3609 7.3337L12.5862 0.869652C12.089 -0.282549 10.6486 -0.297196 10.1471 0.869652Z" fill="black" fill-opacity="0.24"/>
<path d="M11.3664 0.500005C11.6404 0.50104 11.9522 0.662957 12.1269 1.06724C12.127 1.06741 12.127 1.06757 12.1271 1.06774L14.9015 7.53092L15.0091 7.78173L15.2783 7.82683L21.4864 8.86674L21.4868 8.86681C21.8073 8.9202 22.0732 9.18052 22.1842 9.57322C22.2947 9.96457 22.2213 10.4007 21.9484 10.7061L21.9482 10.7062L17.4568 15.7349L17.3005 15.9099L17.3352 16.1419L18.3975 23.2452C18.4677 23.717 18.2852 24.102 18.0291 24.3137C17.7788 24.5205 17.4683 24.5637 17.179 24.3889L17.1789 24.3889L11.6252 21.0348L11.3667 20.8787L11.1082 21.0348L5.55446 24.3889L5.55283 24.3899C5.2641 24.5658 4.95467 24.5229 4.70462 24.3158C4.44825 24.1035 4.26559 23.7172 4.33584 23.2453C4.33585 23.2453 4.33585 23.2453 4.33586 23.2452L5.39811 16.1419L5.43281 15.9099L5.27653 15.7349L0.785106 10.7062L0.784975 10.7061C0.511988 10.4007 0.438654 9.96457 0.549184 9.57322C0.660097 9.18052 0.926085 8.9202 1.24649 8.86681L1.24691 8.86674L7.45501 7.82683L7.7242 7.78173L7.83186 7.53092L10.6065 1.06705C10.783 0.656369 11.0942 0.498977 11.3664 0.500005Z" stroke="black" stroke-opacity="0.09"/>
</g>
</svg>
