<svg width="17" height="29" viewBox="0 0 17 29" fill="none" xmlns="http://www.w3.org/2000/svg">
<path d="M0 4.79632C0 3.52426 0.639665 2.30429 1.77828 1.40481C2.91689 0.505325 4.46117 0 6.07141 0C7.68165 0 9.22594 0.505325 10.3645 1.40481C11.5032 2.30429 12.1428 3.52426 12.1428 4.79632V22.0631C12.1428 22.8263 11.759 23.5583 11.0759 24.098C10.3927 24.6377 9.46612 24.9409 8.49998 24.9409C7.53383 24.9409 6.60726 24.6377 5.92409 24.098C5.24093 23.5583 4.85713 22.8263 4.85713 22.0631V8.63338C4.85713 8.37896 4.98506 8.13497 5.21279 7.95507C5.44051 7.77518 5.74936 7.67411 6.07141 7.67411C6.39346 7.67411 6.70232 7.77518 6.93004 7.95507C7.15776 8.13497 7.2857 8.37896 7.2857 8.63338V22.0631C7.2857 22.3175 7.41363 22.5615 7.64135 22.7414C7.86907 22.9213 8.17793 23.0223 8.49998 23.0223C8.82203 23.0223 9.13088 22.9213 9.35861 22.7414C9.58633 22.5615 9.71426 22.3175 9.71426 22.0631V4.79632C9.71426 4.4184 9.62004 4.04419 9.43697 3.69504C9.25389 3.34589 8.98557 3.02864 8.6473 2.76141C8.30903 2.49419 7.90744 2.28221 7.46547 2.13759C7.0235 1.99296 6.5498 1.91853 6.07141 1.91853C5.59303 1.91853 5.11933 1.99296 4.67736 2.13759C4.23538 2.28221 3.8338 2.49419 3.49553 2.76141C3.15726 3.02864 2.88893 3.34589 2.70586 3.69504C2.52279 4.04419 2.42857 4.4184 2.42857 4.79632V22.0631C2.42857 23.3351 3.06823 24.5551 4.20684 25.4546C5.34545 26.3541 6.88974 26.8594 8.49998 26.8594C10.1102 26.8594 11.6545 26.3541 12.7931 25.4546C13.9317 24.5551 14.5714 23.3351 14.5714 22.0631V8.63338C14.5714 8.37896 14.6993 8.13497 14.927 7.95507C15.1548 7.77518 15.4636 7.67411 15.7857 7.67411C16.1077 7.67411 16.4166 7.77518 16.6443 7.95507C16.872 8.13497 17 8.37896 17 8.63338V22.0631C17 23.844 16.1044 25.5519 14.5104 26.8112C12.9163 28.0705 10.7543 28.7779 8.49998 28.7779C6.24564 28.7779 4.08364 28.0705 2.48959 26.8112C0.895531 25.5519 0 23.844 0 22.0631V4.79632Z" fill="black"/>
</svg>
