<svg width="8" height="15" viewBox="0 0 8 15" fill="none" xmlns="http://www.w3.org/2000/svg">
<path fill-rule="evenodd" clip-rule="evenodd" d="M7.83216 0.163077C7.77909 0.111384 7.71605 0.0703713 7.64665 0.0423878C7.57724 0.0144043 7.50283 0 7.42769 0C7.35254 0 7.27814 0.0144043 7.20873 0.0423878C7.13933 0.0703713 7.07628 0.111384 7.02321 0.163077L0.167729 6.82411C0.114527 6.87567 0.0723173 6.93693 0.0435171 7.00436C0.0147165 7.0718 -0.000108131 7.1441 -0.000108131 7.21711C-0.000108131 7.29012 0.0147165 7.36242 0.0435171 7.42985C0.0723173 7.49729 0.114527 7.55855 0.167729 7.61011L7.02321 14.2711C7.13049 14.3754 7.27598 14.4339 7.42769 14.4339C7.5794 14.4339 7.72489 14.3754 7.83216 14.2711C7.93944 14.1669 7.9997 14.0255 7.9997 13.8781C7.9997 13.7307 7.93944 13.5894 7.83216 13.4851L1.38001 7.21711L7.83216 0.949079C7.88536 0.897516 7.92757 0.836262 7.95638 0.768824C7.98518 0.701387 8 0.629091 8 0.556078C8 0.483065 7.98518 0.41077 7.95638 0.343332C7.92757 0.275894 7.88536 0.21464 7.83216 0.163077Z" fill="black" fill-opacity="0.91"/>
</svg>
