<svg width="24" height="28" viewBox="0 0 24 28" fill="none" xmlns="http://www.w3.org/2000/svg">
<path d="M12 28C13.8921 28 15.427 26.4332 15.427 24.5H8.57305C8.57305 26.4332 10.1079 28 12 28ZM23.5387 19.8127C22.5037 18.6774 20.5671 16.9695 20.5671 11.375C20.5671 7.12578 17.6486 3.72422 13.7132 2.88969V1.75C13.7132 0.783672 12.9461 0 12 0C11.0539 0 10.2868 0.783672 10.2868 1.75V2.88969C6.35145 3.72422 3.43288 7.12578 3.43288 11.375C3.43288 16.9695 1.49628 18.6774 0.461286 19.8127C0.139858 20.1655 -0.00264152 20.5871 3.70385e-05 21C0.00592988 21.8969 0.695392 22.75 1.71967 22.75H22.2803C23.3046 22.75 23.9946 21.8969 24 21C24.0026 20.5871 23.8601 20.1649 23.5387 19.8127Z" fill="black"/>
</svg>
