<svg width="7" height="17" viewBox="0 0 7 17" fill="none" xmlns="http://www.w3.org/2000/svg">
<path fill-rule="evenodd" clip-rule="evenodd" d="M0.146856 0.192069C0.19329 0.131186 0.248451 0.082882 0.309181 0.0499235C0.369911 0.0169651 0.435015 0 0.500766 0C0.566516 0 0.631621 0.0169651 0.692351 0.0499235C0.75308 0.082882 0.808242 0.131186 0.854675 0.192069L6.85314 8.0373C6.8997 8.09803 6.93663 8.17018 6.96183 8.2496C6.98703 8.32903 7 8.41418 7 8.50017C7 8.58617 6.98703 8.67131 6.96183 8.75074C6.93663 8.83017 6.8997 8.90231 6.85314 8.96304L0.854675 16.8083C0.760813 16.931 0.633508 17 0.500766 17C0.368024 17 0.240719 16.931 0.146856 16.8083C0.0529933 16.6855 0.000261717 16.519 0.000261717 16.3454C0.000261717 16.1718 0.0529933 16.0053 0.146856 15.8825L5.79242 8.50017L0.146856 1.11781C0.100305 1.05708 0.0633711 0.984933 0.0381711 0.905507C0.0129711 0.82608 0 0.740932 0 0.654938C0 0.568945 0.0129711 0.483796 0.0381711 0.40437C0.0633711 0.324943 0.100305 0.252799 0.146856 0.192069Z" fill="black" fill-opacity="0.91"/>
</svg>
