<svg width="22" height="25" viewBox="0 0 22 25" fill="none" xmlns="http://www.w3.org/2000/svg">
<g style="mix-blend-mode:darken">
<path d="M9.70596 0.869652L7.05187 7.3337L1.11368 8.37361C0.0487929 8.55913 -0.377976 10.1361 0.394272 11.0393L4.69041 16.068L3.6743 23.1716C3.4914 24.4556 4.61725 25.4174 5.56021 24.8169L10.8725 21.4628L16.1847 24.8169C17.1277 25.4125 18.2535 24.4556 18.0706 23.1716L17.0545 16.068L21.3507 11.0393C22.1229 10.1361 21.6961 8.55913 20.6312 8.37361L14.6931 7.3337L12.039 0.869652C11.5634 -0.282549 10.1856 -0.297196 9.70596 0.869652Z" fill="black" fill-opacity="0.24"/>
<path d="M7.40968 7.77864L7.13812 7.8262L1.19993 8.86611L1.1995 8.86619C0.912693 8.91615 0.656461 9.16531 0.547746 9.56772C0.440042 9.9664 0.512917 10.4087 0.774302 10.7144L0.774429 10.7145L5.07057 15.7432L5.21738 15.915L5.18537 16.1388L4.1693 23.2421C4.10066 23.7239 4.28047 24.1136 4.5223 24.3229C4.75478 24.5241 5.03117 24.561 5.29163 24.3951L5.29327 24.3941L10.6055 21.04L10.8725 20.8715L11.1394 21.04L16.4517 24.3941L16.4517 24.3942C16.7128 24.559 16.9903 24.5218 17.223 24.3208C17.4645 24.1121 17.6442 23.7239 17.5757 23.2424L7.40968 7.77864ZM7.40968 7.77864L7.5144 7.52361L10.1684 1.05974C10.1684 1.05968 10.1685 1.05962 10.1685 1.05956C10.3398 0.642862 10.634 0.499065 10.872 0.500005C11.1123 0.500953 11.4073 0.649698 11.5768 1.06035C11.5768 1.06037 11.5768 1.06039 11.5768 1.06041L14.2305 7.52361L14.3353 7.77864L14.6068 7.8262L20.545 8.86611L20.5454 8.86619C20.8322 8.91615 21.0885 9.16531 21.1972 9.56772C21.3049 9.9664 21.232 10.4087 20.9706 10.7144L20.9705 10.7145L16.6744 15.7432L16.5276 15.915L16.5596 16.1388L17.5756 23.2421L7.40968 7.77864Z" stroke="black" stroke-opacity="0.09"/>
</g>
</svg>
