<svg width="16" height="16" viewBox="0 0 16 16" fill="none" xmlns="http://www.w3.org/2000/svg">
<path fill-rule="evenodd" clip-rule="evenodd" d="M0.223379 0.178964C0.294008 0.122235 0.377912 0.0772268 0.470286 0.0465172C0.56266 0.0158076 0.661689 0 0.7617 0C0.861711 0 0.96074 0.0158076 1.05311 0.0465172C1.14549 0.0772268 1.22939 0.122235 1.30002 0.178964L10.4241 7.4889C10.4949 7.54549 10.5511 7.61271 10.5894 7.68672C10.6278 7.76072 10.6475 7.84006 10.6475 7.92019C10.6475 8.00031 10.6278 8.07965 10.5894 8.15366C10.5511 8.22767 10.4949 8.29489 10.4241 8.35147L1.30002 15.6614C1.15725 15.7758 0.96361 15.8401 0.7617 15.8401C0.559791 15.8401 0.36615 15.7758 0.223379 15.6614C0.0806069 15.547 0.000398815 15.3919 0.000398815 15.2301C0.000398815 15.0684 0.0806069 14.9132 0.223379 14.7988L8.81067 7.92019L0.223379 1.04154C0.152571 0.984951 0.0963926 0.917729 0.0580616 0.843722C0.0197306 0.769715 0 0.690376 0 0.61025C0 0.530125 0.0197306 0.450786 0.0580616 0.376779C0.0963926 0.302772 0.152571 0.23555 0.223379 0.178964Z" fill="black" fill-opacity="0.91"/>
<path fill-rule="evenodd" clip-rule="evenodd" d="M5.57611 0.178964C5.64674 0.122235 5.73064 0.0772268 5.82301 0.0465172C5.91538 0.0158076 6.0144 0 6.11441 0C6.21442 0 6.31344 0.0158076 6.40581 0.0465172C6.49818 0.0772268 6.58208 0.122235 6.65271 0.178964L15.7764 7.4889C15.8472 7.54549 15.9034 7.61271 15.9417 7.68672C15.98 7.76072 15.9998 7.84006 15.9998 7.92019C15.9998 8.00031 15.98 8.07965 15.9417 8.15366C15.9034 8.22767 15.8472 8.29489 15.7764 8.35147L6.65271 15.6614C6.50994 15.7758 6.31631 15.8401 6.11441 15.8401C5.91251 15.8401 5.71888 15.7758 5.57611 15.6614C5.43335 15.547 5.35314 15.3919 5.35314 15.2301C5.35314 15.0684 5.43335 14.9132 5.57611 14.7988L14.163 7.92019L5.57611 1.04154C5.50531 0.984951 5.44913 0.917729 5.4108 0.843722C5.37247 0.769715 5.35274 0.690376 5.35274 0.61025C5.35274 0.530125 5.37247 0.450786 5.4108 0.376779C5.44913 0.302772 5.50531 0.23555 5.57611 0.178964Z" fill="black" fill-opacity="0.91"/>
</svg>
